<mxfile host="app.diagrams.net" modified="2020-11-30T03:02:36.336Z" agent="5.0 (Macintosh; Intel Mac OS X 10_15_6) AppleWebKit/537.36 (KHTML, like Gecko) Chrome/84.0.4147.89 Safari/537.36" etag="eEeYuim3YzCYAwhzOQT5" version="13.9.2" type="github">
  <diagram id="V3Fjr_e1vZjvpqPleqKn" name="Page-1">
    <mxGraphModel dx="1063" dy="524" grid="1" gridSize="10" guides="1" tooltips="1" connect="1" arrows="1" fold="1" page="1" pageScale="1" pageWidth="827" pageHeight="1169" background="#ffffff" math="0" shadow="0">
      <root>
        <mxCell id="0" />
        <mxCell id="1" parent="0" />
        <mxCell id="G8XucjVkLJ4G5duzQtwN-8" value="" style="edgeStyle=orthogonalEdgeStyle;rounded=0;orthogonalLoop=1;jettySize=auto;html=1;entryX=0.5;entryY=0;entryDx=0;entryDy=0;" edge="1" parent="1" source="G8XucjVkLJ4G5duzQtwN-1" target="G8XucjVkLJ4G5duzQtwN-11">
          <mxGeometry relative="1" as="geometry" />
        </mxCell>
        <mxCell id="G8XucjVkLJ4G5duzQtwN-10" value="点击链接" style="edgeLabel;html=1;align=center;verticalAlign=middle;resizable=0;points=[];" vertex="1" connectable="0" parent="G8XucjVkLJ4G5duzQtwN-8">
          <mxGeometry relative="1" as="geometry">
            <mxPoint as="offset" />
          </mxGeometry>
        </mxCell>
        <mxCell id="G8XucjVkLJ4G5duzQtwN-1" value="&lt;span style=&quot;font-size: 12pt&quot;&gt;调度运行管理系统&lt;/span&gt;&lt;span style=&quot;font-size: medium&quot;&gt;&lt;/span&gt;" style="rounded=1;whiteSpace=wrap;html=1;fillColor=#dae8fc;strokeColor=#6c8ebf;" vertex="1" parent="1">
          <mxGeometry x="250" y="170" width="150" height="60" as="geometry" />
        </mxCell>
        <mxCell id="G8XucjVkLJ4G5duzQtwN-2" value="&lt;font style=&quot;font-size: 16px&quot;&gt;云南现货边界数据管理系统&lt;/font&gt;" style="rounded=1;whiteSpace=wrap;html=1;fillColor=#dae8fc;strokeColor=#6c8ebf;" vertex="1" parent="1">
          <mxGeometry x="250" y="440" width="150" height="60" as="geometry" />
        </mxCell>
        <mxCell id="G8XucjVkLJ4G5duzQtwN-7" value="" style="edgeStyle=orthogonalEdgeStyle;rounded=0;orthogonalLoop=1;jettySize=auto;html=1;" edge="1" parent="1" source="G8XucjVkLJ4G5duzQtwN-6" target="G8XucjVkLJ4G5duzQtwN-1">
          <mxGeometry relative="1" as="geometry" />
        </mxCell>
        <mxCell id="G8XucjVkLJ4G5duzQtwN-9" value="Login" style="edgeLabel;html=1;align=center;verticalAlign=middle;resizable=0;points=[];" vertex="1" connectable="0" parent="G8XucjVkLJ4G5duzQtwN-7">
          <mxGeometry x="0.06" relative="1" as="geometry">
            <mxPoint as="offset" />
          </mxGeometry>
        </mxCell>
        <mxCell id="G8XucjVkLJ4G5duzQtwN-6" value="" style="verticalLabelPosition=bottom;html=1;verticalAlign=top;align=center;pointerEvents=1;shape=mxgraph.cisco_safe.design.actor_1;fillColor=#d80073;strokeColor=#A50040;fontColor=#ffffff;" vertex="1" parent="1">
          <mxGeometry x="485" y="180" width="30" height="40" as="geometry" />
        </mxCell>
        <mxCell id="G8XucjVkLJ4G5duzQtwN-12" value="" style="edgeStyle=orthogonalEdgeStyle;rounded=0;orthogonalLoop=1;jettySize=auto;html=1;" edge="1" parent="1" source="G8XucjVkLJ4G5duzQtwN-11" target="G8XucjVkLJ4G5duzQtwN-2">
          <mxGeometry relative="1" as="geometry" />
        </mxCell>
        <mxCell id="G8XucjVkLJ4G5duzQtwN-13" value="成功" style="edgeLabel;html=1;align=center;verticalAlign=middle;resizable=0;points=[];" vertex="1" connectable="0" parent="G8XucjVkLJ4G5duzQtwN-12">
          <mxGeometry x="-0.3" y="1" relative="1" as="geometry">
            <mxPoint as="offset" />
          </mxGeometry>
        </mxCell>
        <mxCell id="G8XucjVkLJ4G5duzQtwN-16" value="" style="edgeStyle=orthogonalEdgeStyle;rounded=0;orthogonalLoop=1;jettySize=auto;html=1;" edge="1" parent="1" source="G8XucjVkLJ4G5duzQtwN-11" target="G8XucjVkLJ4G5duzQtwN-15">
          <mxGeometry relative="1" as="geometry" />
        </mxCell>
        <mxCell id="G8XucjVkLJ4G5duzQtwN-17" value="失败" style="edgeLabel;html=1;align=center;verticalAlign=middle;resizable=0;points=[];" vertex="1" connectable="0" parent="G8XucjVkLJ4G5duzQtwN-16">
          <mxGeometry x="-0.04" y="2" relative="1" as="geometry">
            <mxPoint as="offset" />
          </mxGeometry>
        </mxCell>
        <mxCell id="G8XucjVkLJ4G5duzQtwN-11" value="调用登录边界系统接口" style="rhombus;whiteSpace=wrap;html=1;" vertex="1" parent="1">
          <mxGeometry x="245" y="300" width="155" height="80" as="geometry" />
        </mxCell>
        <mxCell id="G8XucjVkLJ4G5duzQtwN-20" value="" style="edgeStyle=orthogonalEdgeStyle;rounded=0;orthogonalLoop=1;jettySize=auto;html=1;" edge="1" parent="1" source="G8XucjVkLJ4G5duzQtwN-15" target="G8XucjVkLJ4G5duzQtwN-19">
          <mxGeometry relative="1" as="geometry" />
        </mxCell>
        <mxCell id="G8XucjVkLJ4G5duzQtwN-15" value="登录界面" style="rounded=0;whiteSpace=wrap;html=1;fillColor=#f5f5f5;strokeColor=#666666;fontColor=#333333;" vertex="1" parent="1">
          <mxGeometry x="460" y="310" width="80" height="60" as="geometry" />
        </mxCell>
        <mxCell id="G8XucjVkLJ4G5duzQtwN-19" value="调用登录边界系统接口" style="rhombus;whiteSpace=wrap;html=1;" vertex="1" parent="1">
          <mxGeometry x="422.5" y="410" width="155" height="80" as="geometry" />
        </mxCell>
        <mxCell id="G8XucjVkLJ4G5duzQtwN-21" value="" style="endArrow=classic;html=1;exitX=0.5;exitY=1;exitDx=0;exitDy=0;entryX=0.46;entryY=0.983;entryDx=0;entryDy=0;entryPerimeter=0;" edge="1" parent="1" source="G8XucjVkLJ4G5duzQtwN-19" target="G8XucjVkLJ4G5duzQtwN-2">
          <mxGeometry width="50" height="50" relative="1" as="geometry">
            <mxPoint x="350" y="600" as="sourcePoint" />
            <mxPoint x="400" y="550" as="targetPoint" />
            <Array as="points">
              <mxPoint x="500" y="540" />
              <mxPoint x="319" y="540" />
            </Array>
          </mxGeometry>
        </mxCell>
        <mxCell id="G8XucjVkLJ4G5duzQtwN-24" value="成功" style="edgeLabel;html=1;align=center;verticalAlign=middle;resizable=0;points=[];" vertex="1" connectable="0" parent="G8XucjVkLJ4G5duzQtwN-21">
          <mxGeometry x="0.0073" y="1" relative="1" as="geometry">
            <mxPoint as="offset" />
          </mxGeometry>
        </mxCell>
        <mxCell id="G8XucjVkLJ4G5duzQtwN-22" value="" style="endArrow=classic;html=1;entryX=1;entryY=0.5;entryDx=0;entryDy=0;exitX=1;exitY=0.5;exitDx=0;exitDy=0;" edge="1" parent="1" source="G8XucjVkLJ4G5duzQtwN-19" target="G8XucjVkLJ4G5duzQtwN-15">
          <mxGeometry width="50" height="50" relative="1" as="geometry">
            <mxPoint x="580" y="450" as="sourcePoint" />
            <mxPoint x="330" y="530" as="targetPoint" />
            <Array as="points">
              <mxPoint x="578" y="340" />
            </Array>
          </mxGeometry>
        </mxCell>
        <mxCell id="G8XucjVkLJ4G5duzQtwN-23" value="失败" style="edgeLabel;html=1;align=center;verticalAlign=middle;resizable=0;points=[];" vertex="1" connectable="0" parent="G8XucjVkLJ4G5duzQtwN-22">
          <mxGeometry x="-0.2567" y="-1" relative="1" as="geometry">
            <mxPoint as="offset" />
          </mxGeometry>
        </mxCell>
        <mxCell id="G8XucjVkLJ4G5duzQtwN-25" value="" style="endArrow=classic;html=1;exitX=0.5;exitY=1.05;exitDx=0;exitDy=0;exitPerimeter=0;entryX=0.5;entryY=0;entryDx=0;entryDy=0;" edge="1" parent="1" source="G8XucjVkLJ4G5duzQtwN-6" target="G8XucjVkLJ4G5duzQtwN-15">
          <mxGeometry width="50" height="50" relative="1" as="geometry">
            <mxPoint x="590" y="290" as="sourcePoint" />
            <mxPoint x="640" y="240" as="targetPoint" />
          </mxGeometry>
        </mxCell>
        <mxCell id="G8XucjVkLJ4G5duzQtwN-28" value="现货边界数据管理&lt;br&gt;系统web端" style="aspect=fixed;perimeter=ellipsePerimeter;html=1;align=center;shadow=0;dashed=0;spacingTop=3;image;image=img/lib/active_directory/web_server.svg;" vertex="1" parent="1">
          <mxGeometry x="420" y="950" width="40" height="50" as="geometry" />
        </mxCell>
        <mxCell id="G8XucjVkLJ4G5duzQtwN-29" value="云南现货边界数据&lt;br&gt;管理系统数据库" style="aspect=fixed;perimeter=ellipsePerimeter;html=1;align=center;shadow=0;dashed=0;spacingTop=3;image;image=img/lib/active_directory/database_server.svg;" vertex="1" parent="1">
          <mxGeometry x="240" y="950" width="41" height="50" as="geometry" />
        </mxCell>
        <mxCell id="G8XucjVkLJ4G5duzQtwN-31" value="调度运行管理系统" style="aspect=fixed;perimeter=ellipsePerimeter;html=1;align=center;shadow=0;dashed=0;spacingTop=3;image;image=img/lib/active_directory/generic_server.svg;" vertex="1" parent="1">
          <mxGeometry x="346" y="740" width="28.000000000000004" height="50" as="geometry" />
        </mxCell>
        <mxCell id="G8XucjVkLJ4G5duzQtwN-37" value="" style="endArrow=classic;html=1;exitX=0.5;exitY=1;exitDx=0;exitDy=0;entryX=0.5;entryY=0;entryDx=0;entryDy=0;" edge="1" parent="1" source="G8XucjVkLJ4G5duzQtwN-31" target="G8XucjVkLJ4G5duzQtwN-28">
          <mxGeometry width="50" height="50" relative="1" as="geometry">
            <mxPoint x="360" y="920" as="sourcePoint" />
            <mxPoint x="410" y="870" as="targetPoint" />
            <Array as="points">
              <mxPoint x="440" y="790" />
              <mxPoint x="440" y="840" />
            </Array>
          </mxGeometry>
        </mxCell>
        <mxCell id="G8XucjVkLJ4G5duzQtwN-38" value="单点&lt;br&gt;登录" style="edgeLabel;html=1;align=center;verticalAlign=middle;resizable=0;points=[];" vertex="1" connectable="0" parent="G8XucjVkLJ4G5duzQtwN-37">
          <mxGeometry x="-0.0766" y="-32" relative="1" as="geometry">
            <mxPoint x="33" y="32" as="offset" />
          </mxGeometry>
        </mxCell>
        <mxCell id="G8XucjVkLJ4G5duzQtwN-39" value="" style="endArrow=classic;html=1;exitX=0.5;exitY=1;exitDx=0;exitDy=0;entryX=0.5;entryY=0;entryDx=0;entryDy=0;" edge="1" parent="1" source="G8XucjVkLJ4G5duzQtwN-31" target="G8XucjVkLJ4G5duzQtwN-29">
          <mxGeometry width="50" height="50" relative="1" as="geometry">
            <mxPoint x="270" y="950" as="sourcePoint" />
            <mxPoint x="320" y="900" as="targetPoint" />
            <Array as="points">
              <mxPoint x="360" y="830" />
              <mxPoint x="261" y="830" />
            </Array>
          </mxGeometry>
        </mxCell>
        <mxCell id="G8XucjVkLJ4G5duzQtwN-41" value="日断面&lt;br&gt;极限文件" style="edgeLabel;html=1;align=center;verticalAlign=middle;resizable=0;points=[];" vertex="1" connectable="0" parent="G8XucjVkLJ4G5duzQtwN-39">
          <mxGeometry x="0.4532" y="-1" relative="1" as="geometry">
            <mxPoint as="offset" />
          </mxGeometry>
        </mxCell>
        <mxCell id="G8XucjVkLJ4G5duzQtwN-43" value="" style="endArrow=classic;html=1;exitX=0.5;exitY=1;exitDx=0;exitDy=0;entryX=0.5;entryY=0;entryDx=0;entryDy=0;" edge="1" parent="1" source="G8XucjVkLJ4G5duzQtwN-31" target="G8XucjVkLJ4G5duzQtwN-29">
          <mxGeometry width="50" height="50" relative="1" as="geometry">
            <mxPoint x="120" y="820" as="sourcePoint" />
            <mxPoint x="150" y="940" as="targetPoint" />
            <Array as="points">
              <mxPoint x="200" y="790" />
              <mxPoint x="200" y="840" />
              <mxPoint x="200" y="950" />
            </Array>
          </mxGeometry>
        </mxCell>
        <mxCell id="G8XucjVkLJ4G5duzQtwN-44" value="输变电&lt;br&gt;检修文件" style="edgeLabel;html=1;align=center;verticalAlign=middle;resizable=0;points=[];" vertex="1" connectable="0" parent="G8XucjVkLJ4G5duzQtwN-43">
          <mxGeometry x="-0.0085" y="17" relative="1" as="geometry">
            <mxPoint x="-17" y="17" as="offset" />
          </mxGeometry>
        </mxCell>
        <mxCell id="G8XucjVkLJ4G5duzQtwN-45" value="" style="endArrow=classic;html=1;entryX=0.5;entryY=0;entryDx=0;entryDy=0;" edge="1" parent="1" target="G8XucjVkLJ4G5duzQtwN-29">
          <mxGeometry width="50" height="50" relative="1" as="geometry">
            <mxPoint x="360" y="790" as="sourcePoint" />
            <mxPoint x="180" y="850" as="targetPoint" />
            <Array as="points">
              <mxPoint x="360" y="950" />
            </Array>
          </mxGeometry>
        </mxCell>
        <mxCell id="G8XucjVkLJ4G5duzQtwN-46" value="机组&lt;br&gt;检修文件" style="edgeLabel;html=1;align=center;verticalAlign=middle;resizable=0;points=[];" vertex="1" connectable="0" parent="G8XucjVkLJ4G5duzQtwN-45">
          <mxGeometry x="-0.2678" y="1" relative="1" as="geometry">
            <mxPoint as="offset" />
          </mxGeometry>
        </mxCell>
        <mxCell id="G8XucjVkLJ4G5duzQtwN-47" value="" style="endArrow=classic;html=1;exitX=1;exitY=0.5;exitDx=0;exitDy=0;entryX=0;entryY=0.5;entryDx=0;entryDy=0;" edge="1" parent="1" source="G8XucjVkLJ4G5duzQtwN-29" target="G8XucjVkLJ4G5duzQtwN-28">
          <mxGeometry width="50" height="50" relative="1" as="geometry">
            <mxPoint x="360" y="1020" as="sourcePoint" />
            <mxPoint x="410" y="970" as="targetPoint" />
          </mxGeometry>
        </mxCell>
        <mxCell id="G8XucjVkLJ4G5duzQtwN-48" value="data" style="edgeLabel;html=1;align=center;verticalAlign=middle;resizable=0;points=[];" vertex="1" connectable="0" parent="G8XucjVkLJ4G5duzQtwN-47">
          <mxGeometry x="0.0072" y="-3" relative="1" as="geometry">
            <mxPoint as="offset" />
          </mxGeometry>
        </mxCell>
        <mxCell id="G8XucjVkLJ4G5duzQtwN-49" value="现货边界数据管理&lt;br&gt;系统web端" style="aspect=fixed;perimeter=ellipsePerimeter;html=1;align=center;shadow=0;dashed=0;spacingTop=3;image;image=img/lib/active_directory/web_server.svg;" vertex="1" parent="1">
          <mxGeometry x="940" y="950" width="40" height="50" as="geometry" />
        </mxCell>
        <mxCell id="G8XucjVkLJ4G5duzQtwN-50" value="云南现货边界数据&lt;br&gt;管理系统数据库" style="aspect=fixed;perimeter=ellipsePerimeter;html=1;align=center;shadow=0;dashed=0;spacingTop=3;image;image=img/lib/active_directory/database_server.svg;" vertex="1" parent="1">
          <mxGeometry x="760" y="950" width="41" height="50" as="geometry" />
        </mxCell>
        <mxCell id="G8XucjVkLJ4G5duzQtwN-51" value="&lt;span style=&quot;font-size: 12pt&quot;&gt;一体化电网运行控制系统&lt;/span&gt;&lt;span style=&quot;font-size: medium&quot;&gt;&lt;/span&gt;" style="aspect=fixed;perimeter=ellipsePerimeter;html=1;align=center;shadow=0;dashed=0;spacingTop=3;image;image=img/lib/active_directory/generic_server.svg;" vertex="1" parent="1">
          <mxGeometry x="866" y="740" width="28.000000000000004" height="50" as="geometry" />
        </mxCell>
        <mxCell id="G8XucjVkLJ4G5duzQtwN-56" value="" style="endArrow=classic;html=1;exitX=0.5;exitY=1;exitDx=0;exitDy=0;entryX=0.5;entryY=0;entryDx=0;entryDy=0;" edge="1" parent="1" source="G8XucjVkLJ4G5duzQtwN-51" target="G8XucjVkLJ4G5duzQtwN-50">
          <mxGeometry width="50" height="50" relative="1" as="geometry">
            <mxPoint x="640" y="820" as="sourcePoint" />
            <mxPoint x="670" y="940" as="targetPoint" />
            <Array as="points">
              <mxPoint x="720" y="790" />
              <mxPoint x="720" y="840" />
              <mxPoint x="720" y="950" />
            </Array>
          </mxGeometry>
        </mxCell>
        <mxCell id="G8XucjVkLJ4G5duzQtwN-57" value="模型文件" style="edgeLabel;html=1;align=center;verticalAlign=middle;resizable=0;points=[];" vertex="1" connectable="0" parent="G8XucjVkLJ4G5duzQtwN-56">
          <mxGeometry x="-0.0085" y="17" relative="1" as="geometry">
            <mxPoint x="-17" y="17" as="offset" />
          </mxGeometry>
        </mxCell>
        <mxCell id="G8XucjVkLJ4G5duzQtwN-58" value="" style="endArrow=classic;html=1;entryX=0.5;entryY=0;entryDx=0;entryDy=0;" edge="1" parent="1" target="G8XucjVkLJ4G5duzQtwN-50">
          <mxGeometry width="50" height="50" relative="1" as="geometry">
            <mxPoint x="880" y="790" as="sourcePoint" />
            <mxPoint x="700" y="850" as="targetPoint" />
            <Array as="points">
              <mxPoint x="880" y="950" />
            </Array>
          </mxGeometry>
        </mxCell>
        <mxCell id="G8XucjVkLJ4G5duzQtwN-59" value="模型状态文件" style="edgeLabel;html=1;align=center;verticalAlign=middle;resizable=0;points=[];" vertex="1" connectable="0" parent="G8XucjVkLJ4G5duzQtwN-58">
          <mxGeometry x="-0.2678" y="1" relative="1" as="geometry">
            <mxPoint as="offset" />
          </mxGeometry>
        </mxCell>
        <mxCell id="G8XucjVkLJ4G5duzQtwN-60" value="" style="endArrow=classic;html=1;exitX=1;exitY=0.5;exitDx=0;exitDy=0;entryX=0;entryY=0.5;entryDx=0;entryDy=0;" edge="1" parent="1" source="G8XucjVkLJ4G5duzQtwN-50" target="G8XucjVkLJ4G5duzQtwN-49">
          <mxGeometry width="50" height="50" relative="1" as="geometry">
            <mxPoint x="880" y="1020" as="sourcePoint" />
            <mxPoint x="930" y="970" as="targetPoint" />
          </mxGeometry>
        </mxCell>
        <mxCell id="G8XucjVkLJ4G5duzQtwN-61" value="data" style="edgeLabel;html=1;align=center;verticalAlign=middle;resizable=0;points=[];" vertex="1" connectable="0" parent="G8XucjVkLJ4G5duzQtwN-60">
          <mxGeometry x="0.0072" y="-3" relative="1" as="geometry">
            <mxPoint as="offset" />
          </mxGeometry>
        </mxCell>
        <mxCell id="G8XucjVkLJ4G5duzQtwN-62" value="现货边界数据管理&lt;br&gt;系统web端" style="aspect=fixed;perimeter=ellipsePerimeter;html=1;align=center;shadow=0;dashed=0;spacingTop=3;image;image=img/lib/active_directory/web_server.svg;" vertex="1" parent="1">
          <mxGeometry x="1440" y="930" width="40" height="50" as="geometry" />
        </mxCell>
        <mxCell id="G8XucjVkLJ4G5duzQtwN-63" value="云南现货边界数据&lt;br&gt;管理系统数据库" style="aspect=fixed;perimeter=ellipsePerimeter;html=1;align=center;shadow=0;dashed=0;spacingTop=3;image;image=img/lib/active_directory/database_server.svg;" vertex="1" parent="1">
          <mxGeometry x="1254" y="930" width="41" height="50" as="geometry" />
        </mxCell>
        <mxCell id="G8XucjVkLJ4G5duzQtwN-77" value="" style="edgeStyle=orthogonalEdgeStyle;rounded=0;orthogonalLoop=1;jettySize=auto;html=1;" edge="1" parent="1" source="G8XucjVkLJ4G5duzQtwN-64" target="G8XucjVkLJ4G5duzQtwN-76">
          <mxGeometry relative="1" as="geometry" />
        </mxCell>
        <mxCell id="G8XucjVkLJ4G5duzQtwN-64" value="&lt;span style=&quot;font-size: 12pt&quot;&gt;云南日前安全校核系统&lt;/span&gt;&lt;span style=&quot;font-size: medium&quot;&gt;&lt;/span&gt;" style="aspect=fixed;perimeter=ellipsePerimeter;html=1;align=center;shadow=0;dashed=0;spacingTop=3;image;image=img/lib/active_directory/generic_server.svg;" vertex="1" parent="1">
          <mxGeometry x="1446" y="720" width="28.000000000000004" height="50" as="geometry" />
        </mxCell>
        <mxCell id="G8XucjVkLJ4G5duzQtwN-69" value="" style="endArrow=classic;html=1;exitX=1;exitY=0.5;exitDx=0;exitDy=0;entryX=0;entryY=0.5;entryDx=0;entryDy=0;" edge="1" parent="1" source="G8XucjVkLJ4G5duzQtwN-63" target="G8XucjVkLJ4G5duzQtwN-62">
          <mxGeometry width="50" height="50" relative="1" as="geometry">
            <mxPoint x="1374" y="1000" as="sourcePoint" />
            <mxPoint x="1424" y="950" as="targetPoint" />
          </mxGeometry>
        </mxCell>
        <mxCell id="G8XucjVkLJ4G5duzQtwN-70" value="data" style="edgeLabel;html=1;align=center;verticalAlign=middle;resizable=0;points=[];" vertex="1" connectable="0" parent="G8XucjVkLJ4G5duzQtwN-69">
          <mxGeometry x="0.0072" y="-3" relative="1" as="geometry">
            <mxPoint as="offset" />
          </mxGeometry>
        </mxCell>
        <mxCell id="G8XucjVkLJ4G5duzQtwN-74" value="" style="endArrow=classic;html=1;exitX=0.5;exitY=0;exitDx=0;exitDy=0;entryX=0.5;entryY=1;entryDx=0;entryDy=0;" edge="1" parent="1" source="G8XucjVkLJ4G5duzQtwN-62" target="G8XucjVkLJ4G5duzQtwN-64">
          <mxGeometry width="50" height="50" relative="1" as="geometry">
            <mxPoint x="1390" y="970" as="sourcePoint" />
            <mxPoint x="1440" y="920" as="targetPoint" />
          </mxGeometry>
        </mxCell>
        <mxCell id="G8XucjVkLJ4G5duzQtwN-75" value="边界数据" style="edgeLabel;html=1;align=center;verticalAlign=middle;resizable=0;points=[];" vertex="1" connectable="0" parent="G8XucjVkLJ4G5duzQtwN-74">
          <mxGeometry x="-0.25" y="-1" relative="1" as="geometry">
            <mxPoint as="offset" />
          </mxGeometry>
        </mxCell>
        <mxCell id="G8XucjVkLJ4G5duzQtwN-76" value="安全校核" style="rounded=0;whiteSpace=wrap;html=1;" vertex="1" parent="1">
          <mxGeometry x="1330" y="730" width="60" height="30" as="geometry" />
        </mxCell>
        <mxCell id="G8XucjVkLJ4G5duzQtwN-78" value="安全校核结果" style="rounded=0;whiteSpace=wrap;html=1;" vertex="1" parent="1">
          <mxGeometry x="1210" y="800" width="39" height="70" as="geometry" />
        </mxCell>
        <mxCell id="G8XucjVkLJ4G5duzQtwN-79" value="灵敏度数据" style="rounded=0;whiteSpace=wrap;html=1;" vertex="1" parent="1">
          <mxGeometry x="1270" y="800" width="39" height="70" as="geometry" />
        </mxCell>
        <mxCell id="G8XucjVkLJ4G5duzQtwN-80" value="" style="endArrow=classic;html=1;exitX=0;exitY=0.5;exitDx=0;exitDy=0;entryX=0.5;entryY=0;entryDx=0;entryDy=0;" edge="1" parent="1" source="G8XucjVkLJ4G5duzQtwN-76" target="G8XucjVkLJ4G5duzQtwN-79">
          <mxGeometry width="50" height="50" relative="1" as="geometry">
            <mxPoint x="1120" y="830" as="sourcePoint" />
            <mxPoint x="1170" y="780" as="targetPoint" />
            <Array as="points">
              <mxPoint x="1290" y="745" />
            </Array>
          </mxGeometry>
        </mxCell>
        <mxCell id="G8XucjVkLJ4G5duzQtwN-81" value="" style="endArrow=classic;html=1;exitX=0;exitY=0.5;exitDx=0;exitDy=0;" edge="1" parent="1" source="G8XucjVkLJ4G5duzQtwN-76" target="G8XucjVkLJ4G5duzQtwN-78">
          <mxGeometry width="50" height="50" relative="1" as="geometry">
            <mxPoint x="1340" y="755" as="sourcePoint" />
            <mxPoint x="1299.5" y="810" as="targetPoint" />
            <Array as="points">
              <mxPoint x="1230" y="745" />
            </Array>
          </mxGeometry>
        </mxCell>
        <mxCell id="G8XucjVkLJ4G5duzQtwN-82" value="" style="endArrow=classic;html=1;exitX=0.5;exitY=1;exitDx=0;exitDy=0;entryX=0.5;entryY=0;entryDx=0;entryDy=0;" edge="1" parent="1" source="G8XucjVkLJ4G5duzQtwN-78" target="G8XucjVkLJ4G5duzQtwN-63">
          <mxGeometry width="50" height="50" relative="1" as="geometry">
            <mxPoint x="1180" y="950" as="sourcePoint" />
            <mxPoint x="1230" y="900" as="targetPoint" />
          </mxGeometry>
        </mxCell>
        <mxCell id="G8XucjVkLJ4G5duzQtwN-83" value="" style="endArrow=classic;html=1;exitX=0.5;exitY=1;exitDx=0;exitDy=0;entryX=0.5;entryY=0;entryDx=0;entryDy=0;" edge="1" parent="1" source="G8XucjVkLJ4G5duzQtwN-79" target="G8XucjVkLJ4G5duzQtwN-63">
          <mxGeometry width="50" height="50" relative="1" as="geometry">
            <mxPoint x="1239.5" y="880" as="sourcePoint" />
            <mxPoint x="1240" y="910" as="targetPoint" />
          </mxGeometry>
        </mxCell>
        <mxCell id="G8XucjVkLJ4G5duzQtwN-101" value="" style="edgeStyle=orthogonalEdgeStyle;rounded=0;orthogonalLoop=1;jettySize=auto;html=1;" edge="1" parent="1" source="G8XucjVkLJ4G5duzQtwN-102" target="G8XucjVkLJ4G5duzQtwN-107">
          <mxGeometry relative="1" as="geometry" />
        </mxCell>
        <mxCell id="G8XucjVkLJ4G5duzQtwN-102" value="&lt;span style=&quot;font-size: 12pt&quot;&gt;云南现货模拟系统&lt;/span&gt;&lt;span style=&quot;font-size: medium&quot;&gt;&lt;/span&gt;" style="aspect=fixed;perimeter=ellipsePerimeter;html=1;align=center;shadow=0;dashed=0;spacingTop=3;image;image=img/lib/active_directory/generic_server.svg;" vertex="1" parent="1">
          <mxGeometry x="1610" y="720" width="28.000000000000004" height="50" as="geometry" />
        </mxCell>
        <mxCell id="G8XucjVkLJ4G5duzQtwN-105" value="" style="endArrow=classic;html=1;exitX=1;exitY=0.5;exitDx=0;exitDy=0;entryX=0.5;entryY=1;entryDx=0;entryDy=0;" edge="1" parent="1" source="G8XucjVkLJ4G5duzQtwN-62" target="G8XucjVkLJ4G5duzQtwN-102">
          <mxGeometry width="50" height="50" relative="1" as="geometry">
            <mxPoint x="1950" y="890" as="sourcePoint" />
            <mxPoint x="1930" y="920" as="targetPoint" />
            <Array as="points">
              <mxPoint x="1624" y="955" />
            </Array>
          </mxGeometry>
        </mxCell>
        <mxCell id="G8XucjVkLJ4G5duzQtwN-106" value="边界数据" style="edgeLabel;html=1;align=center;verticalAlign=middle;resizable=0;points=[];" vertex="1" connectable="0" parent="G8XucjVkLJ4G5duzQtwN-105">
          <mxGeometry x="-0.25" y="-1" relative="1" as="geometry">
            <mxPoint as="offset" />
          </mxGeometry>
        </mxCell>
        <mxCell id="G8XucjVkLJ4G5duzQtwN-107" value="现货模拟出清" style="rounded=0;whiteSpace=wrap;html=1;" vertex="1" parent="1">
          <mxGeometry x="1750" y="730" width="60" height="30" as="geometry" />
        </mxCell>
        <mxCell id="G8XucjVkLJ4G5duzQtwN-116" value="data" style="endArrow=classic;html=1;exitX=0;exitY=0.5;exitDx=0;exitDy=0;entryX=1;entryY=0.5;entryDx=0;entryDy=0;" edge="1" parent="1" source="G8XucjVkLJ4G5duzQtwN-102" target="G8XucjVkLJ4G5duzQtwN-64">
          <mxGeometry width="50" height="50" relative="1" as="geometry">
            <mxPoint x="1550" y="750" as="sourcePoint" />
            <mxPoint x="1600" y="700" as="targetPoint" />
          </mxGeometry>
        </mxCell>
        <mxCell id="G8XucjVkLJ4G5duzQtwN-117" value="现货边界数据管理&lt;br&gt;系统web端" style="aspect=fixed;perimeter=ellipsePerimeter;html=1;align=center;shadow=0;dashed=0;spacingTop=3;image;image=img/lib/active_directory/web_server.svg;" vertex="1" parent="1">
          <mxGeometry x="1080" y="555" width="40" height="50" as="geometry" />
        </mxCell>
        <mxCell id="G8XucjVkLJ4G5duzQtwN-118" value="云南现货边界数据&lt;br&gt;管理系统数据库" style="aspect=fixed;perimeter=ellipsePerimeter;html=1;align=center;shadow=0;dashed=0;spacingTop=3;image;image=img/lib/active_directory/database_server.svg;" vertex="1" parent="1">
          <mxGeometry x="1080" y="395" width="41" height="50" as="geometry" />
        </mxCell>
        <mxCell id="G8XucjVkLJ4G5duzQtwN-119" value="&lt;span style=&quot;font-size: 12pt&quot;&gt;&lt;font color=&quot;#ff0000&quot;&gt;云南节能调度系统&lt;/font&gt;&lt;/span&gt;&lt;span style=&quot;font-size: medium&quot;&gt;&lt;/span&gt;" style="aspect=fixed;perimeter=ellipsePerimeter;html=1;align=center;shadow=0;dashed=0;spacingTop=3;image;image=img/lib/active_directory/generic_server.svg;" vertex="1" parent="1">
          <mxGeometry x="1100" y="150" width="28.000000000000004" height="50" as="geometry" />
        </mxCell>
        <mxCell id="G8XucjVkLJ4G5duzQtwN-120" value="" style="endArrow=classic;html=1;exitX=0;exitY=0.5;exitDx=0;exitDy=0;entryX=0.5;entryY=0;entryDx=0;entryDy=0;" edge="1" parent="1" source="G8XucjVkLJ4G5duzQtwN-119" target="G8XucjVkLJ4G5duzQtwN-118">
          <mxGeometry width="50" height="50" relative="1" as="geometry">
            <mxPoint x="1100" y="170" as="sourcePoint" />
            <mxPoint x="990" y="385" as="targetPoint" />
            <Array as="points">
              <mxPoint x="980" y="245" />
              <mxPoint x="980" y="325" />
              <mxPoint x="980" y="395" />
              <mxPoint x="1040" y="395" />
            </Array>
          </mxGeometry>
        </mxCell>
        <mxCell id="G8XucjVkLJ4G5duzQtwN-121" value="&lt;font style=&quot;font-size: 14px&quot;&gt;日前发电计划&lt;/font&gt;&lt;span style=&quot;font-size: medium&quot;&gt;&lt;/span&gt;" style="edgeLabel;html=1;align=center;verticalAlign=middle;resizable=0;points=[];" vertex="1" connectable="0" parent="G8XucjVkLJ4G5duzQtwN-120">
          <mxGeometry x="-0.0085" y="17" relative="1" as="geometry">
            <mxPoint x="-17" y="17" as="offset" />
          </mxGeometry>
        </mxCell>
        <mxCell id="G8XucjVkLJ4G5duzQtwN-122" value="" style="endArrow=classic;html=1;entryX=0.5;entryY=0;entryDx=0;entryDy=0;exitX=1;exitY=1;exitDx=0;exitDy=0;" edge="1" parent="1" target="G8XucjVkLJ4G5duzQtwN-118" source="G8XucjVkLJ4G5duzQtwN-119">
          <mxGeometry width="50" height="50" relative="1" as="geometry">
            <mxPoint x="1114" y="195" as="sourcePoint" />
            <mxPoint x="1020" y="295" as="targetPoint" />
            <Array as="points">
              <mxPoint x="1150" y="275" />
              <mxPoint x="1150" y="365" />
            </Array>
          </mxGeometry>
        </mxCell>
        <mxCell id="G8XucjVkLJ4G5duzQtwN-123" value="&lt;font style=&quot;font-size: 14px&quot;&gt;联络线计划&lt;/font&gt;&lt;span style=&quot;font-size: medium&quot;&gt;&lt;/span&gt;" style="edgeLabel;html=1;align=center;verticalAlign=middle;resizable=0;points=[];" vertex="1" connectable="0" parent="G8XucjVkLJ4G5duzQtwN-122">
          <mxGeometry x="-0.2678" y="1" relative="1" as="geometry">
            <mxPoint x="7.04" y="41.14" as="offset" />
          </mxGeometry>
        </mxCell>
        <mxCell id="G8XucjVkLJ4G5duzQtwN-124" value="" style="endArrow=classic;html=1;exitX=0.5;exitY=1;exitDx=0;exitDy=0;entryX=0.5;entryY=0;entryDx=0;entryDy=0;" edge="1" parent="1" source="G8XucjVkLJ4G5duzQtwN-118" target="G8XucjVkLJ4G5duzQtwN-117">
          <mxGeometry width="50" height="50" relative="1" as="geometry">
            <mxPoint x="1200" y="465" as="sourcePoint" />
            <mxPoint x="1250" y="415" as="targetPoint" />
          </mxGeometry>
        </mxCell>
        <mxCell id="G8XucjVkLJ4G5duzQtwN-125" value="data" style="edgeLabel;html=1;align=center;verticalAlign=middle;resizable=0;points=[];" vertex="1" connectable="0" parent="G8XucjVkLJ4G5duzQtwN-124">
          <mxGeometry x="0.0072" y="-3" relative="1" as="geometry">
            <mxPoint as="offset" />
          </mxGeometry>
        </mxCell>
        <mxCell id="G8XucjVkLJ4G5duzQtwN-126" value="" style="endArrow=classic;html=1;entryX=0.5;entryY=0;entryDx=0;entryDy=0;exitX=0.25;exitY=1;exitDx=0;exitDy=0;" edge="1" parent="1" source="G8XucjVkLJ4G5duzQtwN-119" target="G8XucjVkLJ4G5duzQtwN-118">
          <mxGeometry width="50" height="50" relative="1" as="geometry">
            <mxPoint x="1107.7390096630006" y="192.36067977499715" as="sourcePoint" />
            <mxPoint x="900" y="445" as="targetPoint" />
            <Array as="points">
              <mxPoint x="1060" y="265" />
              <mxPoint x="1060" y="365" />
            </Array>
          </mxGeometry>
        </mxCell>
        <mxCell id="G8XucjVkLJ4G5duzQtwN-127" value="&lt;font style=&quot;font-size: 14px&quot;&gt;电厂初始水位&lt;/font&gt;&lt;span style=&quot;font-size: medium&quot;&gt;&lt;/span&gt;" style="edgeLabel;html=1;align=center;verticalAlign=middle;resizable=0;points=[];" vertex="1" connectable="0" parent="G8XucjVkLJ4G5duzQtwN-126">
          <mxGeometry x="-0.4815" y="2" relative="1" as="geometry">
            <mxPoint x="-4.73" y="96.46" as="offset" />
          </mxGeometry>
        </mxCell>
        <mxCell id="G8XucjVkLJ4G5duzQtwN-128" value="" style="endArrow=classic;html=1;exitX=1;exitY=0.5;exitDx=0;exitDy=0;entryX=0.5;entryY=0;entryDx=0;entryDy=0;" edge="1" parent="1" source="G8XucjVkLJ4G5duzQtwN-119" target="G8XucjVkLJ4G5duzQtwN-118">
          <mxGeometry width="50" height="50" relative="1" as="geometry">
            <mxPoint x="1128" y="170" as="sourcePoint" />
            <mxPoint x="870" y="445" as="targetPoint" />
            <Array as="points">
              <mxPoint x="1220" y="235" />
              <mxPoint x="1220" y="395" />
            </Array>
          </mxGeometry>
        </mxCell>
        <mxCell id="G8XucjVkLJ4G5duzQtwN-129" value="&lt;font style=&quot;font-size: 14px&quot;&gt;电厂固定耗水率&lt;/font&gt;&lt;span style=&quot;font-size: medium&quot;&gt;&lt;/span&gt;" style="edgeLabel;html=1;align=center;verticalAlign=middle;resizable=0;points=[];" vertex="1" connectable="0" parent="G8XucjVkLJ4G5duzQtwN-128">
          <mxGeometry x="-0.3471" relative="1" as="geometry">
            <mxPoint x="10.660000000000004" y="24.65" as="offset" />
          </mxGeometry>
        </mxCell>
      </root>
    </mxGraphModel>
  </diagram>
</mxfile>
